<?xml version="1.0"?>
<svg version="1.1" xmlns="http://www.w3.org/2000/svg" width="400" height="200" style=""><path fill="#409fe3" d="M17.978515625,117.578125q0-3.41796875,0.3173828125-8.88671875t0.7568359375-11.279296875t1.0986328125-11.0107421875t1.4404296875-7.9833984375q0.29296875-1.220703125,1.3916015625-1.46484375t2.2216796875-0.244140625q1.513671875,0,2.6123046875,0.537109375t1.0986328125,2.34375q0,8.88671875-1.0986328125,17.7978515625t-1.1962890625,17.7978515625q1.513671875-2.294921875,3.90625-3.4423828125t5.078125-1.1474609375q3.7109375,0,6.396484375,1.513671875t4.345703125,3.90625t2.4658203125,5.5419921875t0.8056640625,6.4208984375q0,1.806640625-0.3662109375,4.5166015625t-1.0986328125,5.712890625t-1.85546875,5.95703125t-2.6611328125,5.2978515625t-3.5400390625,3.7841796875t-4.39453125,1.4404296875q-0.48828125,0-1.2939453125-0.146484375t-1.611328125-0.439453125t-1.3427734375-0.7568359375t-0.537109375-1.1474609375q0-0.78125,0.9521484375-1.0986328125t1.5380859375-0.3173828125q2.197265625-0.9765625,3.90625-4.0771484375t2.8564453125-6.8115234375t1.7333984375-7.3486328125t0.5859375-5.9326171875q0-1.318359375-0.390625-3.515625t-1.1962890625-4.345703125t-2.197265625-3.7109375t-3.2958984375-1.5625q-2.294921875,0-3.662109375,2.3681640625t-2.1484375,5.517578125t-1.0498046875,6.494140625t-0.2685546875,5.2490234375q0,1.220703125,0.4150390625,2.4169921875t0.9521484375,2.392578125t0.9521484375,2.44140625t0.4150390625,2.4658203125q0,0.5859375-0.5126953125,0.9765625t-1.1962890625,0.634765625t-1.4404296875,0.3173828125t-1.1474609375,0.0732421875q-2.783203125,0-3.857421875-1.318359375t-1.85546875-3.7109375q-1.708984375-5.419921875-2.3681640625-11.0107421875t-0.6591796875-11.2060546875z M59.61279296875,133.7890625q0-3.41796875,0.7568359375-8.056640625t2.5634765625-8.7890625t4.7607421875-7.0556640625t7.4462890625-2.9052734375q4.19921875,0,6.298828125,2.4169921875t2.099609375,6.5185546875q0,2.685546875-1.0009765625,5.8837890625t-2.8564453125,6.0546875t-4.39453125,4.7607421875t-5.6640625,1.904296875l-1.26953125-0.09765625q0,1.318359375,0.390625,3.5400390625t1.1474609375,4.4189453125t1.953125,3.857421875t2.9052734375,1.66015625q2.490234375,0,4.78515625-2.001953125t4.345703125-4.443359375t3.80859375-4.443359375t3.22265625-2.001953125q0.78125,0,1.611328125,0.244140625t0.927734375,1.3671875q0,0.68359375-0.3662109375,1.123046875t-0.6591796875,0.9765625q-1.513671875,2.587890625-3.2958984375,4.931640625t-4.0283203125,4.248046875t-4.9072265625,3.0029296875t-5.8837890625,1.0986328125q-4.19921875,0-6.982421875-1.4892578125t-4.4921875-4.00390625t-2.4658203125-5.810546875t-0.7568359375-6.9091796875z M68.35302734375,130.078125l1.3671875,1.220703125q0.9765625,0.87890625,1.953125,0.390625t1.7578125-1.7822265625t1.4404296875-3.1982421875t1.171875-3.90625t0.7568359375-3.90625t0.244140625-3.173828125l0-1.66015625t-0.146484375-1.7578125t-0.5126953125-1.3916015625t-1.1474609375-0.7080078125q-0.244140625-0.048828125-0.439453125-0.048828125q-1.66015625,0-2.83203125,2.099609375q-1.26953125,2.34375-2.05078125,5.6884765625t-1.123046875,6.8603515625t-0.439453125,5.2734375z M100.4169921875,131.787109375q0-3.3203125,0.9033203125-6.396484375t2.7099609375-5.4931640625t4.5166015625-3.857421875t6.2744140625-1.4404296875q2.197265625,0,4.8583984375,0.6591796875t5.0048828125,1.953125t3.90625,3.2958984375t1.5625,4.58984375q0,1.220703125-0.4150390625,1.85546875t-1.6845703125,0.634765625l-0.537109375-0.09765625q1.416015625,3.80859375,2.44140625,7.8125t2.001953125,8.0078125q0.390625,0.78125,0.5859375,1.3916015625t0.1953125,1.1962890625q0,0.78125-0.439453125,1.2939453125t-1.1474609375,0.7568359375t-1.46484375,0.341796875t-1.3427734375,0.09765625q-2.099609375,0-3.1494140625-0.732421875t-1.513671875-2.001953125t-0.5615234375-2.8564453125t-0.390625-3.1982421875q-0.5859375,1.904296875-1.5380859375,3.7109375t-2.24609375,3.2470703125t-3.0517578125,2.294921875t-3.955078125,0.8544921875q-3.22265625,0-5.419921875-1.85546875t-3.5400390625-4.5654296875t-1.953125-5.7861328125t-0.6103515625-5.712890625z M107.3505859375,131.103515625q0,1.806640625,0.244140625,3.80859375t0.8056640625,3.955078125t1.4404296875,3.6865234375t2.197265625,3.0517578125q2.392578125-2.587890625,3.5400390625-6.298828125t2.05078125-7.1533203125t2.05078125-5.908203125t3.5400390625-2.4658203125q1.513671875,0,2.5390625,0.537109375q-0.48828125-1.220703125-1.611328125-2.3681640625t-2.5146484375-2.099609375t-2.880859375-1.5625t-2.8076171875-0.6103515625q-0.390625,0-0.9033203125,0.1220703125t-0.8056640625,0.0244140625q-2.001953125,0.5859375-3.2958984375,2.0263671875t-2.099609375,3.3935546875t-1.1474609375,4.00390625t-0.341796875,3.857421875z M140.73291015625,100.78125q0-0.68359375,1.46484375-1.171875t3.3203125-0.8056640625t3.5888671875-0.4638671875t2.3681640625-0.244140625q0-1.318359375,0.09765625-2.6611328125t0.537109375-2.392578125t1.3916015625-1.6845703125t2.6611328125-0.634765625q1.416015625,0,2.1484375,0.341796875t1.5625,1.416015625q0.1953125,0.5859375,0.1953125,1.123046875l0,1.6357421875t-0.09765625,1.6845703125q1.806640625-0.1953125,3.5888671875-0.4638671875t3.5888671875-0.2685546875q1.318359375,0,1.806640625,0.048828125t0.9765625,1.171875q0.390625,1.123046875-0.9521484375,1.708984375t-3.22265625,0.87890625t-3.7353515625,0.439453125t-2.24609375,0.146484375q-0.5859375,8.3984375-1.1962890625,16.650390625t-0.6103515625,16.748046875q0,3.80859375,0.244140625,7.861328125t1.3671875,7.666015625q0.29296875,1.123046875,0.9765625,2.099609375t0.68359375,2.099609375q0,0.68359375-0.537109375,1.07421875t-1.2939453125,0.6591796875t-1.513671875,0.3173828125t-1.2451171875,0.048828125q-3.076171875,0-4.6875-2.294921875t-2.3193359375-5.4931640625t-0.7568359375-6.5673828125t-0.048828125-5.46875q0-4.296875,0.1708984375-8.7890625t0.4150390625-8.88671875t0.68359375-8.59375t1.025390625-7.8125q-1.708984375,0.1953125-3.3447265625,0.439453125t-3.3447265625,0.244140625q-0.390625,0-1.0498046875-0.048828125t-1.2451171875-0.244140625t-1.0009765625-0.537109375t-0.4150390625-0.9765625z"/><path fill="#0ec74c" d="M210.638671875,103.4765625q7.734375,0,12.109375,6.03515625t4.375,16.54296875q0,10.8203125-4.51171875,16.7578125t-12.28515625,5.9375q-7.6953125,0-12.0703125-5.5859375l-0.8203125,0l-1.9921875,4.8046875l-9.1015625,0l0-60.78125l11.9140625,0l0,14.140625q0,2.6953125-0.46875,8.6328125l0.46875,0q4.1796875-6.484375,12.3828125-6.484375z M206.810546875,113.0078125q-4.4140625,0-6.4453125,2.71484375t-2.109375,8.96484375l0,1.2890625q0,7.03125,2.08984375,10.078125t6.62109375,3.046875q3.671875,0,5.83984375-3.37890625t2.16796875-9.82421875t-2.1875-9.66796875t-5.9765625-3.22265625z M236.215625,104.296875l13.046875,0l8.2421875,24.5703125q1.0546875,3.203125,1.4453125,7.578125l0.234375,0q0.4296875-4.0234375,1.6796875-7.578125l8.0859375-24.5703125l12.7734375,0l-18.4765625,49.2578125q-2.5390625,6.8359375-7.24609375,10.234375t-10.99609375,3.3984375q-3.0859375,0-6.0546875-0.6640625l0-9.453125q2.1484375,0.5078125,4.6875,0.5078125q3.1640625,0,5.52734375-1.93359375t3.69140625-5.83984375l0.703125-2.1484375z M311.870703125,139.2578125q3.125,0,7.5-1.3671875l0,8.8671875q-4.453125,1.9921875-10.9375,1.9921875q-7.1484375,0-10.41015625-3.61328125t-3.26171875-10.83984375l0-21.0546875l-5.703125,0l0-5.0390625l6.5625-3.984375l3.4375-9.21875l7.6171875,0l0,9.296875l12.2265625,0l0,8.9453125l-12.2265625,0l0,21.0546875q0,2.5390625,1.42578125,3.75t3.76953125,1.2109375z M351.78359375,111.953125q-3.7890625,0-5.9375,2.40234375t-2.4609375,6.81640625l16.71875,0q-0.078125-4.4140625-2.3046875-6.81640625t-6.015625-2.40234375z M353.46328125,148.75q-10.546875,0-16.484375-5.8203125t-5.9375-16.484375q0-10.9765625,5.48828125-16.97265625t15.17578125-5.99609375q9.2578125,0,14.4140625,5.2734375t5.15625,14.5703125l0,5.78125l-28.1640625,0q0.1953125,5.078125,3.0078125,7.9296875t7.890625,2.8515625q3.9453125,0,7.4609375-0.8203125t7.34375-2.6171875l0,9.21875q-3.125,1.5625-6.6796875,2.32421875t-8.671875,0.76171875z"/></svg>
